<svg xmlns="http://www.w3.org/2000/svg" viewBox="0 0 48 48">
  <defs>
    <linearGradient gradientUnits="userSpaceOnUse" y2="530.42" x2="422.88" y1="578.01" x1="423.61" id="a">
      <stop stop-color="#1f2121"/>
      <stop offset="1" stop-color="#404447"/>
    </linearGradient>
    <linearGradient id="b" gradientUnits="userSpaceOnUse" y1="543.05" x2="0" y2="503.05">
      <stop stop-color="#d8d8d8"/>
      <stop offset="1" stop-color="#fff"/>
    </linearGradient>
  </defs>
  <g transform="translate(-453.29 -587.31) scale(1.16875)">
    <circle transform="translate(66.28 74.824) scale(.8076)" cx="423.59" cy="555.01" r="25.427" fill="url(#a)" fill-rule="evenodd"/>
    <g fill="url(#b)">
      <path d="M408.32 505.05c9.972 0 18 8.03 18 18 0 9.972-8.03 18-18 18-8.212 0-15.1-5.45-17.273-12.941l6.871 2.758c.52 2.388 2.648 4.184 5.188 4.184 2.751 0 5.02-2.109 5.285-4.793l6.812-4.984c3.928 0 7.117-3.178 7.117-7.105a7.115 7.115 0 0 0-14.23-.067l-4.434 6.352a5.262 5.262 0 0 0-3.262.718l-9.973-4.01a17.952 17.952 0 0 1 17.898-16.11"/>
      <path d="M415.22 514.33a3.813 3.813 0 0 0 0 7.625 3.815 3.815 0 0 0 3.813-3.812 3.815 3.815 0 0 0-3.813-3.813m-12.11 11.5a3.896 3.896 0 0 1 3.906 3.906 3.896 3.896 0 0 1-3.906 3.906 3.891 3.891 0 0 1-3.457-2.082c.642.259 1.284.516 1.926.777a3.112 3.112 0 0 0 4.047-1.723 3.109 3.109 0 0 0-1.73-4.04l-1.629-.652c.271-.058.554-.094.844-.094"/>
    </g>
  </g>
</svg>
